<svg xmlns="http://www.w3.org/2000/svg" xmlns:xlink="http://www.w3.org/1999/xlink" width="236" height="297" viewBox="0 0 236 297">
  <defs>
    <clipPath id="clip-Vector">
      <rect width="236" height="297"/>
    </clipPath>
  </defs>
  <g id="Vector" clip-path="url(#clip-Vector)">
    <g id="Group_1097" data-name="Group 1097" transform="translate(224.509 129.565)">
      <g id="Group_346" data-name="Group 346" transform="translate(-222.509 -128.565)">
        <g id="Group_329" data-name="Group 329" transform="translate(0 186.111)">
          <rect id="Rectangle_3099" data-name="Rectangle 3099" width="187.085" height="7.358" fill="#c46c3b"/>
          <rect id="Rectangle_3100" data-name="Rectangle 3100" width="9.01" height="102.13" transform="translate(9.745 7.358)" fill="#c46c3b"/>
          <rect id="Rectangle_3101" data-name="Rectangle 3101" width="9.01" height="102.13" transform="translate(161.937 7.358)" fill="#c46c3b"/>
          <rect id="Rectangle_3102" data-name="Rectangle 3102" width="9.01" height="10.211" transform="translate(9.745 7.358)" fill="#aa5327"/>
          <rect id="Rectangle_3103" data-name="Rectangle 3103" width="9.01" height="10.211" transform="translate(161.937 7.358)" fill="#aa5327"/>
        </g>
        <g id="Group_334" data-name="Group 334" transform="translate(72.923 109.788)">
          <path id="Path_18579" data-name="Path 18579" d="M-45.174,70.28H-67.3l1.48-14.514h19.164Z" transform="translate(100.447 2.177)" fill="#171923"/>
          <path id="Path_18580" data-name="Path 18580" d="M-40.911,78.116h-34.23a4.154,4.154,0,0,1,4.155-4.155h25.92a4.155,4.155,0,0,1,4.155,4.155Z" transform="translate(102.293 -2.104)" fill="#2a2b3d"/>
          <rect id="Rectangle_3104" data-name="Rectangle 3104" width="88.533" height="59.192" rx="9.514" fill="#2a2b3d"/>
          <rect id="Rectangle_3105" data-name="Rectangle 3105" width="81.002" height="48.116" transform="translate(3.766 3.384)" fill="#d0e6ef"/>
          <path id="Path_18581" data-name="Path 18581" d="M-51.175,52.065a2.291,2.291,0,0,1-2.29,2.291,2.291,2.291,0,0,1-2.29-2.291,2.29,2.29,0,0,1,2.29-2.29A2.29,2.29,0,0,1-51.175,52.065Z" transform="translate(97.732 3.586)" fill="#171923"/>
          <g id="Group_330" data-name="Group 330" transform="translate(7.561 6.383)">
            <rect id="Rectangle_3106" data-name="Rectangle 3106" width="73.411" height="3.771" fill="#fff"/>
            <path id="Path_18582" data-name="Path 18582" d="M-97.289-9.324a.8.8,0,0,1-.8.8.8.8,0,0,1-.8-.8.8.8,0,0,1,.8-.8A.8.8,0,0,1-97.289-9.324Z" transform="translate(100.32 11.296)" fill="#d35473"/>
            <path id="Path_18583" data-name="Path 18583" d="M-93.371-9.324a.8.8,0,0,1-.8.8.8.8,0,0,1-.8-.8.8.8,0,0,1,.8-.8A.8.8,0,0,1-93.371-9.324Z" transform="translate(99.398 11.296)" fill="#ffc55a"/>
            <path id="Path_18584" data-name="Path 18584" d="M-89.453-9.324a.8.8,0,0,1-.8.8.8.8,0,0,1-.8-.8.8.8,0,0,1,.8-.8A.8.8,0,0,1-89.453-9.324Z" transform="translate(98.476 11.296)" fill="#54d15f"/>
            <line id="Line_26" data-name="Line 26" x2="2.445" transform="translate(69.911 1.056)" fill="none" stroke="#61648a" stroke-linecap="round" stroke-miterlimit="10" stroke-width="0.5"/>
            <line id="Line_27" data-name="Line 27" x2="2.445" transform="translate(69.911 1.886)" fill="none" stroke="#61648a" stroke-linecap="round" stroke-miterlimit="10" stroke-width="0.5"/>
            <line id="Line_28" data-name="Line 28" x2="2.445" transform="translate(69.911 2.715)" fill="none" stroke="#61648a" stroke-linecap="round" stroke-miterlimit="10" stroke-width="0.5"/>
          </g>
          <g id="Group_332" data-name="Group 332" transform="translate(49.495 14.406)">
            <g id="Group_331" data-name="Group 331" transform="translate(3.68 0)">
              <line id="Line_29" data-name="Line 29" x2="5.689" transform="translate(4.379)" fill="none" stroke="#54d15f" stroke-linecap="round" stroke-miterlimit="10" stroke-width="1"/>
              <line id="Line_30" data-name="Line 30" x2="2.667" transform="translate(11.204)" fill="none" stroke="#2d292a" stroke-linecap="round" stroke-miterlimit="10" stroke-width="1"/>
              <line id="Line_31" data-name="Line 31" x2="8.418" transform="translate(14.856)" fill="none" stroke="#54d15f" stroke-linecap="round" stroke-miterlimit="10" stroke-width="1"/>
              <line id="Line_32" data-name="Line 32" x2="8.354" transform="translate(1.533 3.59)" fill="none" stroke="#ffc55a" stroke-linecap="round" stroke-miterlimit="10" stroke-width="1"/>
              <line id="Line_33" data-name="Line 33" x2="5.356" transform="translate(11.022 3.59)" fill="none" stroke="#d35473" stroke-linecap="round" stroke-miterlimit="10" stroke-width="1"/>
              <line id="Line_34" data-name="Line 34" x2="3.577" transform="translate(17.363 3.59)" fill="none" stroke="#54d15f" stroke-linecap="round" stroke-miterlimit="10" stroke-width="1"/>
              <line id="Line_35" data-name="Line 35" x2="3.577" transform="translate(22.059 3.59)" fill="none" stroke="#d35473" stroke-linecap="round" stroke-miterlimit="10" stroke-width="1"/>
              <line id="Line_36" data-name="Line 36" x2="4.833" transform="translate(2.283 7.18)" fill="none" stroke="#2d292a" stroke-linecap="round" stroke-miterlimit="10" stroke-width="1"/>
              <line id="Line_37" data-name="Line 37" x2="3.794" transform="translate(8.251 7.18)" fill="none" stroke="#d35473" stroke-linecap="round" stroke-miterlimit="10" stroke-width="1"/>
              <line id="Line_38" data-name="Line 38" x2="6.869" transform="translate(13.03 7.18)" fill="none" stroke="#ffc55a" stroke-linecap="round" stroke-miterlimit="10" stroke-width="1"/>
              <line id="Line_39" data-name="Line 39" x2="2.133" transform="translate(20.822 7.18)" fill="none" stroke="#2d292a" stroke-linecap="round" stroke-miterlimit="10" stroke-width="1"/>
              <line id="Line_40" data-name="Line 40" x2="1.238" transform="translate(0 14.36)" fill="none" stroke="#ffc55a" stroke-linecap="round" stroke-miterlimit="10" stroke-width="1"/>
              <line id="Line_41" data-name="Line 41" x2="7.021" transform="translate(2.373 14.36)" fill="none" stroke="#54d15f" stroke-linecap="round" stroke-miterlimit="10" stroke-width="1"/>
              <line id="Line_42" data-name="Line 42" x2="5.049" transform="translate(10.379 14.36)" fill="none" stroke="#d35473" stroke-linecap="round" stroke-miterlimit="10" stroke-width="1"/>
              <line id="Line_43" data-name="Line 43" x2="6.461" transform="translate(16.186 14.36)" fill="none" stroke="#54d15f" stroke-linecap="round" stroke-miterlimit="10" stroke-width="1"/>
              <line id="Line_44" data-name="Line 44" x2="9.372" transform="translate(14.283 21.54)" fill="none" stroke="#ffc55a" stroke-linecap="round" stroke-miterlimit="10" stroke-width="1"/>
              <line id="Line_45" data-name="Line 45" x2="4.833" transform="translate(2.283 17.95)" fill="none" stroke="#54d15f" stroke-linecap="round" stroke-miterlimit="10" stroke-width="1"/>
              <line id="Line_46" data-name="Line 46" x2="2.58" transform="translate(8.251 17.95)" fill="none" stroke="#d35473" stroke-linecap="round" stroke-miterlimit="10" stroke-width="1"/>
              <line id="Line_47" data-name="Line 47" x2="5.251" transform="translate(11.816 17.95)" fill="none" stroke="#2d292a" stroke-linecap="round" stroke-miterlimit="10" stroke-width="1"/>
              <line id="Line_48" data-name="Line 48" x2="5.251" transform="translate(18.292 17.95)" fill="none" stroke="#d35473" stroke-linecap="round" stroke-miterlimit="10" stroke-width="1"/>
              <line id="Line_49" data-name="Line 49" x2="3.685" transform="translate(2.512 21.54)" fill="none" stroke="#ffc55a" stroke-linecap="round" stroke-miterlimit="10" stroke-width="1"/>
              <line id="Line_50" data-name="Line 50" x2="1.569" transform="translate(7.332 21.54)" fill="none" stroke="#2d292a" stroke-linecap="round" stroke-miterlimit="10" stroke-width="1"/>
              <line id="Line_51" data-name="Line 51" x2="3.231" transform="translate(9.886 21.54)" fill="none" stroke="#54d15f" stroke-linecap="round" stroke-miterlimit="10" stroke-width="1"/>
              <line id="Line_52" data-name="Line 52" x2="3.565" transform="translate(8.251 28.284)" fill="none" stroke="#d35473" stroke-linecap="round" stroke-miterlimit="10" stroke-width="1"/>
              <line id="Line_53" data-name="Line 53" x2="4.116" transform="translate(12.952 28.284)" fill="none" stroke="#2d292a" stroke-linecap="round" stroke-miterlimit="10" stroke-width="1"/>
              <line id="Line_54" data-name="Line 54" x2="6.582" transform="translate(18.052 28.284)" fill="none" stroke="#ffc55a" stroke-linecap="round" stroke-miterlimit="10" stroke-width="1"/>
              <line id="Line_55" data-name="Line 55" x2="2.7" transform="translate(4.983 31.874)" fill="none" stroke="#d35473" stroke-linecap="round" stroke-miterlimit="10" stroke-width="1"/>
              <line id="Line_56" data-name="Line 56" x2="4.299" transform="translate(8.819 31.874)" fill="none" stroke="#2d292a" stroke-linecap="round" stroke-miterlimit="10" stroke-width="1"/>
              <line id="Line_57" data-name="Line 57" x2="3.902" transform="translate(14.102 31.874)" fill="none" stroke="#ffc55a" stroke-linecap="round" stroke-miterlimit="10" stroke-width="1"/>
              <line id="Line_58" data-name="Line 58" x2="6.048" transform="translate(19.12 31.874)" fill="none" stroke="#54d15f" stroke-linecap="round" stroke-miterlimit="10" stroke-width="1"/>
            </g>
            <line id="Line_59" data-name="Line 59" x2="1.214" transform="translate(4.606 0)" fill="none" stroke="#383952" stroke-linecap="round" stroke-miterlimit="10" stroke-width="1" opacity="0.21"/>
            <line id="Line_60" data-name="Line 60" x2="1.214" transform="translate(1.421 3.59)" fill="none" stroke="#383952" stroke-linecap="round" stroke-miterlimit="10" stroke-width="1" opacity="0.21"/>
            <line id="Line_61" data-name="Line 61" x2="1.214" transform="translate(2.893 7.18)" fill="none" stroke="#383952" stroke-linecap="round" stroke-miterlimit="10" stroke-width="1" opacity="0.21"/>
            <line id="Line_62" data-name="Line 62" x2="1.214" transform="translate(0 10.77)" fill="none" stroke="#383952" stroke-linecap="round" stroke-miterlimit="10" stroke-width="1" opacity="0.21"/>
            <line id="Line_63" data-name="Line 63" x2="1.214" transform="translate(0 14.36)" fill="none" stroke="#383952" stroke-linecap="round" stroke-miterlimit="10" stroke-width="1" opacity="0.21"/>
            <line id="Line_64" data-name="Line 64" x2="1.214" transform="translate(2.743 17.95)" fill="none" stroke="#383952" stroke-linecap="round" stroke-miterlimit="10" stroke-width="1" opacity="0.21"/>
            <line id="Line_65" data-name="Line 65" x2="1.214" transform="translate(3.073 21.54)" fill="none" stroke="#383952" stroke-linecap="round" stroke-miterlimit="10" stroke-width="1" opacity="0.21"/>
            <line id="Line_66" data-name="Line 66" x2="1.214" transform="translate(0 25.13)" fill="none" stroke="#383952" stroke-linecap="round" stroke-miterlimit="10" stroke-width="1" opacity="0.21"/>
            <line id="Line_67" data-name="Line 67" x2="1.214" transform="translate(7.772 28.284)" fill="none" stroke="#383952" stroke-linecap="round" stroke-miterlimit="10" stroke-width="1" opacity="0.21"/>
            <line id="Line_68" data-name="Line 68" x2="1.214" transform="translate(4.918 31.874)" fill="none" stroke="#383952" stroke-linecap="round" stroke-miterlimit="10" stroke-width="1" opacity="0.21"/>
          </g>
          <g id="Group_333" data-name="Group 333" transform="translate(7.561 13.516)">
            <rect id="Rectangle_3107" data-name="Rectangle 3107" width="18.38" height="17.371" transform="translate(0 0)" fill="#61648a" opacity="0.33"/>
            <rect id="Rectangle_3108" data-name="Rectangle 3108" width="16.082" height="1.575" transform="translate(20.677 0)" fill="#61648a"/>
            <rect id="Rectangle_3109" data-name="Rectangle 3109" width="16.082" height="1.575" transform="translate(20.677 3.949)" fill="#61648a"/>
            <rect id="Rectangle_3110" data-name="Rectangle 3110" width="16.082" height="1.575" transform="translate(20.677 7.898)" fill="#61648a" opacity="0.33"/>
            <rect id="Rectangle_3111" data-name="Rectangle 3111" width="16.082" height="1.575" transform="translate(20.677 11.847)" fill="#61648a" opacity="0.33"/>
            <rect id="Rectangle_3112" data-name="Rectangle 3112" width="16.082" height="1.575" transform="translate(20.677 15.796)" fill="#61648a" opacity="0.33"/>
            <rect id="Rectangle_3113" data-name="Rectangle 3113" width="18.325" height="12.746" transform="translate(0.055 20.017)" fill="#61648a"/>
            <rect id="Rectangle_3114" data-name="Rectangle 3114" width="16.082" height="6.002" transform="translate(20.677 20.017)" fill="#d35473"/>
            <rect id="Rectangle_3115" data-name="Rectangle 3115" width="16.082" height="3.717" transform="translate(20.677 29.047)" fill="#61648a"/>
          </g>
        </g>
        <g id="Group_336" data-name="Group 336" transform="translate(40.695 101.158)">
          <path id="Path_18585" data-name="Path 18585" d="M-58.06,203.244c-.918,8.447-2.123,12.2,0,13.408s14.14,0,16.746,0,2.607-5.491-1.737-7.781-5.212-10.484-5.212-10.484Z" transform="translate(130.781 -22.747)" fill="#2a2b3d"/>
          <path id="Path_18586" data-name="Path 18586" d="M-129.4,203.244c-.918,8.447-2.123,12.2,0,13.408s14.14,0,16.746,0,2.607-5.491-1.737-7.781-5.212-10.484-5.212-10.484Z" transform="translate(147.564 -22.747)" fill="#2a2b3d"/>
          <path id="Path_18587" data-name="Path 18587" d="M-120.245,147.352c-.237,9.062-.895,17.574-2.034,22.858h-16.763l-6.24-36.57-.642-3.755a6.444,6.444,0,0,1-6.454-6.424v-.115c.115-7.242,1.369-18.484,7.6-22.8,6.944-4.81,20.87,5.323,22.109,7.823,1.208,2.432,2.042,10.783,2.371,20.809C-120.107,134.948-120.084,141.273-120.245,147.352Z" transform="translate(152.692 0.573)" fill="#55597c"/>
          <path id="Path_18588" data-name="Path 18588" d="M-118.062,156.546c-5.919,2.554-10.752,18.331-12.029,22.858h-6.768l-6.24-36.57a8.5,8.5,0,0,1,2.493-2.822c3.044-1.9,20.617-1.675,22.491-1.644C-117.924,144.142-117.9,150.467-118.062,156.546Z" transform="translate(150.509 -8.621)" fill="#383952" opacity="0.36"/>
          <path id="Path_18589" data-name="Path 18589" d="M-38.6,71.059c5.343-2.014,9.064.328,10.028,1.981s1.516,3.17,1.1,4-1.792,0-1.792,0a30.966,30.966,0,0,1-8.268.367C-41.107,76.9-38.6,71.059-38.6,71.059Z" transform="translate(126.124 7.392)" fill="#f4b8ab"/>
          <path id="Path_18590" data-name="Path 18590" d="M-37.43,73.329c2.9,1.559,7.964,3.762,7.94,4.137s-4.542,1.4-7.418.6S-37.43,73.329-37.43,73.329Z" transform="translate(125.863 6.675)" fill="#dd6595" opacity="0.53"/>
          <g id="Group_335" data-name="Group 335" transform="translate(14.852 12.518)">
            <path id="Path_18591" data-name="Path 18591" d="M-111.449-12.64C-109.426-4.352-110.9,5.419-118,6.2l.029,2.916a3.911,3.911,0,0,1-3.873,3.95h0a3.911,3.911,0,0,1-3.95-3.872l-.029-2.916s-5.713-2.362-6.886-5.906-.006-.568-.006-.568l-.65-14.5,22.082-.22Z" transform="translate(133.368 14.918)" fill="#f4b8ab"/>
            <path id="Path_18592" data-name="Path 18592" d="M-115.368,12.7a66.189,66.189,0,0,1-6.8.236l6.831,2.68Z" transform="translate(130.734 8.421)" fill="#dd6595" opacity="0.53"/>
          </g>
          <path id="Path_18593" data-name="Path 18593" d="M-112.9-14.051c6.27-3.958,5.084-12.126.641-9.229a17.181,17.181,0,0,0-17.866-3.275c-10.859,3.932-12.222,13.026-9.929,18.687s16.36,8.606,16.36,8.606l6.5-6.895Z" transform="translate(150.015 30.45)" fill="#6d3744"/>
          <path id="Path_18594" data-name="Path 18594" d="M-105.441-24.117c1.084-3.157-1.64-7.17-4.177-7.17s-2.4,4.357-2.4,4.357l4.333,5.734Z" transform="translate(143.196 31.287)" fill="#6d3744"/>
          <path id="Path_18595" data-name="Path 18595" d="M-116.7-3.143c-.074.983-.824,9.883-2.857,11.827l-8.752.119s-9.661-1.968-11.275-9.994a25.316,25.316,0,0,1-.392-2.617c2.852,5.8,14.9,6.776,21.4-.545C-118.58-4.353-117.757-3.841-116.7-3.143Z" transform="translate(149.775 24.95)" fill="#542633"/>
          <path id="Path_18596" data-name="Path 18596" d="M-107.671-5.64c-1.821-3.244-3.911-1.855-4.313.043s3.431,6.47,4.362,4.84S-107.671-5.64-107.671-5.64Z" transform="translate(143.196 25.71)" fill="#f4b8ab"/>
          <path id="Path_18597" data-name="Path 18597" d="M-107.272-4.186c-1.611-1.658-2.388-.962-2.264.776s2.233,2.963,2.907,2.459S-107.272-4.186-107.272-4.186Z" transform="translate(142.616 25.133)" fill="#dd6595" opacity="0.53"/>
          <path id="Path_18598" data-name="Path 18598" d="M-63.835,64.331c-.849,1.69-22.873,5.078-28.517,3.954s-10.163-9.322-10.163-9.322V80.7h-42.359s-4.114-19.983-6.408-33.343c-.941-5.5-1.583-9.873-1.5-11.272a12.521,12.521,0,0,1,1.162-5.177V30.9a2.6,2.6,0,0,1,.535-.742,23.249,23.249,0,0,1,17.222-10.729l.283-3.671c9.88-1.973,16.939,0,17.222,1.7a11.455,11.455,0,0,1,0,3.357s11.861-3.082,20.334,9.062,11.861,21.734,11.861,21.734,16.09,3.4,18.071,5.376a9.107,9.107,0,0,1,1.927,3.036A5.832,5.832,0,0,1-63.835,64.331Z" transform="translate(152.789 20.412)" fill="#d35473"/>
          <path id="Path_18599" data-name="Path 18599" d="M-63.475,69.243c-.849,1.69-22.873,5.078-28.517,3.954s-10.163-9.322-10.163-9.322V85.616h-42.359s-4.114-19.983-6.409-33.343l-.336-16.449v-.008s10.339.344,26.177.451,16.7,9.911,21.007,15.838,7.112,15.945,14.767,16.052,23.7,1.4,25.313-3.174l.191-.046A5.832,5.832,0,0,1-63.475,69.243Z" transform="translate(152.429 15.5)" fill="#8e253e" opacity="0.38"/>
          <path id="Path_18600" data-name="Path 18600" d="M-65.132,169.319c-.084.444-.168.872-.26,1.285H-82.147l-6.883-40.325h-30.138l-8.557-10.79-14.714-18.553h42.359q.964,0,2,.023c11.548.206,29.534,2.218,32.31,7.8.994,2.011,1.736,8.083,2.141,15.8C-62.86,138.905-63.22,158.957-65.132,169.319Z" transform="translate(150.354 0.18)" fill="#61648a"/>
          <path id="Path_18601" data-name="Path 18601" d="M-60.605,169.319l-1.468,1.285H-77.621L-84.5,130.279h-30.138l-8.557-10.79.788-12.366,5.743-6.187h21.114q.964,0,2,.023c-2.386,20.4,12.442,25.718,21.933,25.2a88.905,88.905,0,0,0,12.519-1.6C-58.334,138.905-58.693,158.957-60.605,169.319Z" transform="translate(145.827 0.18)" fill="#383952" opacity="0.36"/>
          <path id="Path_18602" data-name="Path 18602" d="M-47.454,201.75H-64.143l-1.529-9.714h19.748Z" transform="translate(132.294 -21.253)" fill="#7d819e"/>
          <path id="Path_18603" data-name="Path 18603" d="M-118.791,201.75H-135.48l-1.529-9.714h19.748Z" transform="translate(149.077 -21.253)" fill="#7d819e"/>
        </g>
        <g id="Group_337" data-name="Group 337" transform="translate(21.277 156.706)">
          <rect id="Rectangle_3116" data-name="Rectangle 3116" width="1.519" height="5.707" transform="translate(19.93 130.984)" fill="#55597c"/>
          <rect id="Rectangle_3117" data-name="Rectangle 3117" width="1.519" height="5.707" transform="translate(30.725 130.984)" fill="#55597c"/>
          <rect id="Rectangle_3118" data-name="Rectangle 3118" width="1.519" height="5.707" transform="translate(41.52 130.984)" fill="#55597c"/>
          <path id="Rectangle_3119" data-name="Rectangle 3119" d="M24.311,0H30.37A24.311,24.311,0,0,1,54.682,24.311V67.865a7.047,7.047,0,0,1-7.047,7.047H7.046A7.046,7.046,0,0,1,0,67.865V24.311A24.311,24.311,0,0,1,24.311,0Z" transform="translate(9.356)" fill="#ffc55a"/>
          <path id="Rectangle_3120" data-name="Rectangle 3120" d="M24.311,0H30.37A24.311,24.311,0,0,1,54.682,24.311V67.865a7.047,7.047,0,0,1-7.047,7.047H7.046A7.046,7.046,0,0,1,0,67.865V24.311A24.311,24.311,0,0,1,24.311,0Z" transform="translate(9.356)" fill="#f49947"/>
          <path id="Rectangle_3121" data-name="Rectangle 3121" d="M24.311,0H30.37A24.311,24.311,0,0,1,54.682,24.311V67.865a7.046,7.046,0,0,1-7.046,7.046H7.046A7.046,7.046,0,0,1,0,67.865V24.311A24.311,24.311,0,0,1,24.311,0Z" fill="#ffc55a"/>
          <rect id="Rectangle_3122" data-name="Rectangle 3122" width="58.452" height="10.949" rx="5.475" transform="translate(14.445 74.912)" fill="#f49947"/>
          <rect id="Rectangle_3123" data-name="Rectangle 3123" width="58.452" height="10.949" rx="5.475" transform="translate(0.512 74.912)" fill="#ffc55a"/>
          <rect id="Rectangle_3124" data-name="Rectangle 3124" width="4.417" height="38.955" transform="translate(29.391 90.293)" fill="#14161e"/>
          <path id="Rectangle_3125" data-name="Rectangle 3125" d="M0,0H16.33a0,0,0,0,1,0,0V2.267a2.165,2.165,0,0,1-2.165,2.165h-12A2.165,2.165,0,0,1,0,2.267V0A0,0,0,0,1,0,0Z" transform="translate(23.174 85.861)" fill="#1f202d"/>
          <rect id="Rectangle_3126" data-name="Rectangle 3126" width="26.039" height="3.875" transform="translate(18.319 128.268)" fill="#1f202d"/>
          <rect id="Rectangle_3127" data-name="Rectangle 3127" width="5.782" height="42.705" transform="translate(23.541 43.156)" fill="#2a2b3d"/>
          <rect id="Rectangle_3128" data-name="Rectangle 3128" width="13.404" height="14.898" rx="4.019" transform="translate(19.73 35.148)" fill="#1f202d"/>
          <rect id="Rectangle_3129" data-name="Rectangle 3129" width="6.711" height="7.459" rx="3.356" transform="translate(23.076 38.868)" fill="#2a2b3d"/>
          <path id="Path_18604" data-name="Path 18604" d="M-149.484,219.868a2.371,2.371,0,0,1-2.371,2.371,2.37,2.37,0,0,1-2.371-2.371,2.37,2.37,0,0,1,2.371-2.371A2.371,2.371,0,0,1-149.484,219.868Z" transform="translate(172.544 -82.79)" fill="#14161e"/>
          <path id="Path_18605" data-name="Path 18605" d="M-135.369,219.868a2.371,2.371,0,0,1-2.371,2.371,2.371,2.371,0,0,1-2.371-2.371,2.371,2.371,0,0,1,2.371-2.371A2.371,2.371,0,0,1-135.369,219.868Z" transform="translate(169.224 -82.79)" fill="#14161e"/>
          <path id="Path_18606" data-name="Path 18606" d="M-121.253,219.868a2.371,2.371,0,0,1-2.371,2.371,2.371,2.371,0,0,1-2.371-2.371,2.371,2.371,0,0,1,2.371-2.371A2.371,2.371,0,0,1-121.253,219.868Z" transform="translate(165.903 -82.79)" fill="#14161e"/>
        </g>
        <g id="Group_342" data-name="Group 342" transform="translate(57.258 0)">
          <g id="Group_339" data-name="Group 339" transform="translate(24.652)">
            <rect id="Rectangle_3131" data-name="Rectangle 3131" width="70.93" height="70.93" transform="translate(0 15.564)" fill="#d0e6ef"/>
            <circle id="Ellipse_180" data-name="Ellipse 180" cx="12.952" cy="12.952" r="12.952" transform="matrix(0.228, -0.974, 0.974, 0.228, 22.006, 25.22)" fill="#61648a"/>
            <rect id="Rectangle_3132" data-name="Rectangle 3132" width="40.969" height="7.163" transform="translate(19.684 41.224)" fill="#61648a"/>
            <rect id="Rectangle_3133" data-name="Rectangle 3133" width="7.163" height="7.163" transform="translate(12.521 41.224)" fill="#fff"/>
            <rect id="Rectangle_3134" data-name="Rectangle 3134" width="40.969" height="7.163" transform="translate(19.684 52.286)" fill="#61648a"/>
            <rect id="Rectangle_3135" data-name="Rectangle 3135" width="20.865" height="3.582" transform="translate(39.788 63.348)" fill="#61648a" opacity="0.33"/>
            <rect id="Rectangle_3136" data-name="Rectangle 3136" width="7.163" height="7.163" transform="translate(12.521 52.286)" fill="#fff"/>
          </g>
          <g id="Group_341" data-name="Group 341" transform="translate(89.364 21.491)">
            <rect id="Rectangle_3137" data-name="Rectangle 3137" width="35.062" height="17.836" fill="#d35473"/>
            <path id="Path_18612" data-name="Path 18612" d="M-3.046-115.316-9-104.664l15.665-9.712Z" transform="translate(13.033 130.723)" fill="#d35473"/>
            <g id="Group_340" data-name="Group 340" transform="translate(7.976 7.273)">
              <path id="Path_18613" data-name="Path 18613" d="M-.555-124.308A1.645,1.645,0,0,1-2.2-122.663a1.645,1.645,0,0,1-1.644-1.645A1.645,1.645,0,0,1-2.2-125.953,1.645,1.645,0,0,1-.555-124.308Z" transform="translate(3.844 125.953)" fill="#fff"/>
              <path id="Path_18614" data-name="Path 18614" d="M9.79-124.308a1.645,1.645,0,0,1-1.645,1.645A1.645,1.645,0,0,1,6.5-124.308a1.645,1.645,0,0,1,1.645-1.645A1.645,1.645,0,0,1,9.79-124.308Z" transform="translate(1.41 125.953)" fill="#fff"/>
              <circle id="Ellipse_181" data-name="Ellipse 181" cx="1.645" cy="1.645" r="1.645" transform="translate(15.821 0)" fill="#fff"/>
            </g>
          </g>
          <rect id="Rectangle_3138" data-name="Rectangle 3138" width="30.644" height="21.229" transform="translate(0 61.62)" fill="#ffc55a"/>
          <text id="_" data-name="&lt;/&gt;" transform="translate(4.871 74.186)" fill="#fff" font-size="12" font-family="Lato-Black, Lato" font-weight="800" letter-spacing="-0.1em"><tspan x="0" y="0">&lt;/&gt;</tspan></text>
          <text id="_2" data-name="&lt;/&gt;" transform="translate(53.871 19.49)" fill="#fff" font-size="12" font-family="Lato-Black, Lato" font-weight="800" letter-spacing="-0.1em"><tspan x="0" y="0">&lt;/&gt;</tspan></text>
        </g>
        <g id="Group_345" data-name="Group 345" transform="translate(112.885 63.35)">
          <path id="Path_18615" data-name="Path 18615" d="M11.305,198.387c.918,8.447,1.837,17.059-.285,18.265s-14.141,0-16.747,0-2.606-5.491,1.737-7.781,5.212-10.484,5.212-10.484Z" transform="translate(46.42 15.062)" fill="#d35473"/>
          <path id="Path_18616" data-name="Path 18616" d="M79.872,204.461c.918,8.447,2.123,12.2,0,13.408s-14.141,0-16.747,0-2.606-5.491,1.737-7.781a7.905,7.905,0,0,0,4.365-6.529Z" transform="translate(30.221 13.845)" fill="#d35473"/>
          <path id="Path_18617" data-name="Path 18617" d="M-6.414-67.73c-3.55,7.117-3.117,14.374,3.978,14.673S-6.414-67.73-6.414-67.73Z" transform="translate(46.675 77.669)" fill="#542633"/>
          <g id="Group_344" data-name="Group 344" transform="translate(39.794)">
            <g id="Group_343" data-name="Group 343" transform="translate(0.302 4.57)">
              <path id="Path_18618" data-name="Path 18618" d="M-4.677-61.939C-2.448-53.2,3.783-44.807,10.8-47.607l1.422,2.736A4.137,4.137,0,0,0,17.8-43.107h0a4.136,4.136,0,0,0,1.763-5.577L18.145-51.42s4.16-5.043,3.495-8.935-.278-.534-.278-.534l-6.6-13.862L-5.96-63.985Z" transform="translate(5.96 74.751)" fill="#f4b8ab"/>
              <path id="Path_18619" data-name="Path 18619" d="M15.96-40.228a69.831,69.831,0,0,0,6.467-3.16l-5.045,5.9Z" transform="translate(0.803 67.372)" fill="#dd6595" opacity="0.53"/>
            </g>
            <path id="Path_18620" data-name="Path 18620" d="M21.754-64.13c-.229,4.413-1.361,8.236-2.21,9.162-1.835,1.981-8.114,4.175-8.114,4.175-2.86-.382-7.663-2.462-11.555-5.72-4.13-3.449-7.234-8.213-5.927-13.681,2.225-9.292,15.907-13.712,23.233-7.953C21.1-75.066,22.021-69.208,21.754-64.13Z" transform="translate(6.355 80.727)" fill="#6d3744"/>
            <path id="Path_18621" data-name="Path 18621" d="M23.67-59.784c-.229,4.413-1.361,8.236-2.21,9.162-1.835,1.981-8.114,4.175-8.114,4.175-2.86-.382-7.663-2.462-11.555-5.72a5.289,5.289,0,0,1,1.43-3.587c2.715-2.44,10.668,3.281,12.465-5.927l1.675-.574S21.016-60.832,23.67-59.784Z" transform="translate(4.438 76.381)" fill="#542633"/>
            <path id="Path_18622" data-name="Path 18622" d="M.666-53.345c.088-3.933,2.73-3.675,4.048-2.1s.012,7.744-1.667,6.685S.666-53.345.666-53.345Z" transform="translate(4.703 75.032)" fill="#f4b8ab"/>
            <path id="Path_18623" data-name="Path 18623" d="M1.457-51.943c.681-2.349,1.75-2.085,2.5-.4s-.612,3.876-1.492,3.74S1.457-51.943,1.457-51.943Z" transform="translate(4.517 74.358)" fill="#dd6595" opacity="0.53"/>
          </g>
          <path id="Path_18624" data-name="Path 18624" d="M21.873-73.89a6.244,6.244,0,0,0-2.313,9.474c1.806,2.3,5.013,1.246,5.013,1.246Z" transform="translate(40.36 79.118)" fill="#ffc55a"/>
          <path id="Path_18625" data-name="Path 18625" d="M20.717-69.28c-1.061-5.2,4.328-9.623,9.04-7.172a5.7,5.7,0,0,1,2.716,2.917c1.767,4.418,1.656,10.149,7.068,10.927,0,0-6.516,6.964-13.032,2.767C22.859-62.19,21.345-66.2,20.717-69.28Z" transform="translate(39.811 79.884)" fill="#6d3744"/>
          <path id="Path_18626" data-name="Path 18626" d="M46.2-40.464c10.527.184,21.888,13.67,25.092,22.512s-5.243,19.6-5.243,19.6Z" transform="translate(33.785 71.254)" fill="#424866"/>
          <path id="Path_18627" data-name="Path 18627" d="M-42.148,22.387c-4.535-5.807-6.614-6.126-8.053-5.007s-6.877,4.256-7.837,5.007.16,1.871,1.919,1.551l1.759-.32s-.8,4.158,1.279,6.077,8.637-.8,8.637-.8Z" transform="translate(58.391 57.766)" fill="#f4b8ab"/>
          <path id="Path_18628" data-name="Path 18628" d="M54.432,60.805c-1.017,4.512-3.839,12.71-7.533,22.56-11.57,30.834-31.706,77.789-31.706,77.789l-17.122-1.637L23.613,32.6l.543-2.707S35.5,13.139,44.345,16.925a12.03,12.03,0,0,1,4.841,4.229,33.024,33.024,0,0,1,4.68,10.53A62.643,62.643,0,0,1,54.432,60.805Z" transform="translate(45.108 57.884)" fill="#ffc55a"/>
          <path id="Path_18629" data-name="Path 18629" d="M81.493,162.1l-14.721.528L61.135,84.837,58.581,49.629v-27H75.367a47.105,47.105,0,0,1,6.974,14.316h.008C90.631,62.622,91.381,109.431,81.493,162.1Z" transform="translate(30.872 56.412)" fill="#ffc55a"/>
          <path id="Path_18630" data-name="Path 18630" d="M61.346,97.5,75.579,71.476,62.84,110.895Z" transform="translate(30.221 44.919)" fill="#f49947"/>
          <path id="Path_18631" data-name="Path 18631" d="M75.963,35.47c-.229-.115-5.246-2.485-14.239-3.785a80.983,80.983,0,0,0-9.521-.8A98.148,98.148,0,0,0,31.471,32.6l.543-2.707S43.363,13.139,52.2,16.925a12.03,12.03,0,0,1,4.841,4.229H68.989A47.105,47.105,0,0,1,75.963,35.47Z" transform="translate(37.25 57.884)" fill="#f49947"/>
          <path id="Path_18632" data-name="Path 18632" d="M51.823,7.23,14.848,15.971,2.543-.363S-4.1,15.39-8.515,17.723-40.81,16.262-40.81,16.262c-.727-.826-.8-2.424-.574-4.145h.008a33.754,33.754,0,0,1,1.705-6.6L-17.8,3.445s6.623-17.834,9.284-26.391,8.29-9.8,8.29-9.8a16.1,16.1,0,0,0-.054-2.715c-.168-.612,8.94-7.357,15.126-7.357l1.438,1.308s5.827-2.531,13.4,2.715c3.984,2.753,9.9,15.318,14.606,26.628v.008C48.542-1.946,51.823,7.23,51.823,7.23Z" transform="translate(54.416 71.807)" fill="#61648a"/>
          <path id="Path_18633" data-name="Path 18633" d="M51.823,16.662,14.848,25.4,2.543,9.068S-4.1,24.822-8.515,27.154-40.81,25.694-40.81,25.694c-.727-.826-.8-2.424-.574-4.145h.008c7.731-3.525,26.98,5.216,31.767-.948S.234-2.953,2.551,1.933,9.6,14.192,15.46,15.454,45.407,10.521,44.29-2.724C48.542,7.485,51.823,16.662,51.823,16.662Z" transform="translate(54.416 62.375)" fill="#383952" opacity="0.36"/>
        </g>
      </g>
    </g>
  </g>
</svg>
