<svg xmlns="http://www.w3.org/2000/svg" width="26.601" height="26.601" viewBox="0 0 26.601 26.601"><defs><style>.a{fill:#3969ad;stroke:#3969ad;}</style></defs><g transform="translate(0.5 0.5)"><circle class="a" cx="0.5" cy="0.5" r="0.5" transform="translate(12 6)"/><path class="a" d="M21.852,3.749a12.8,12.8,0,0,0-18.1,18.1,12.805,12.805,0,0,0,15.675,1.9,1,1,0,0,0-1.036-1.711,10.9,10.9,0,1,1,3.382-3.251,1,1,0,0,0,1.663,1.112,12.769,12.769,0,0,0-1.58-16.157Z"/><path class="a" d="M237,187a1,1,0,0,0-1,1v8.9a1,1,0,0,0,2,0V188A1,1,0,0,0,237,187Z" transform="translate(-224.2 -177.65)"/></g></svg>