<svg xmlns="http://www.w3.org/2000/svg" width="18" height="20" viewBox="0 0 18 20"><defs><style>.a{fill:#5f8dc4;}</style></defs><g transform="translate(0 0)"><path class="a" d="M319.986,18.708A2.66,2.66,0,1,1,317.327,16,2.684,2.684,0,0,1,319.986,18.708Zm0,0" transform="translate(-302.6 -15.375)"/><path class="a" d="M301.941,6.667a3.307,3.307,0,0,1-3.273-3.333,3.273,3.273,0,1,1,6.545,0A3.307,3.307,0,0,1,301.941,6.667Zm0-5.417a2.084,2.084,0,1,0,2.045,2.083,2.067,2.067,0,0,0-2.045-2.083Zm0,0" transform="translate(-287.213)"/><path class="a" d="M319.986,360.041a2.66,2.66,0,1,1-2.659-2.708A2.684,2.684,0,0,1,319.986,360.041Zm0,0" transform="translate(-302.6 -343.374)"/><path class="a" d="M301.941,348a3.334,3.334,0,1,1,3.273-3.333A3.307,3.307,0,0,1,301.941,348Zm0-5.417a2.084,2.084,0,1,0,2.045,2.083A2.067,2.067,0,0,0,301.941,342.582Zm0,0" transform="translate(-287.213 -327.999)"/><path class="a" d="M21.318,189.376a2.66,2.66,0,1,1-2.659-2.708A2.684,2.684,0,0,1,21.318,189.376Zm0,0" transform="translate(-15.386 -179.376)"/><path class="a" d="M3.273,177.335a3.334,3.334,0,0,1,0-6.667,3.334,3.334,0,0,1,0,6.667Zm0-5.417a2.084,2.084,0,0,0,0,4.167,2.084,2.084,0,0,0,0-4.167Zm0,0" transform="translate(0 -164.001)"/><path class="a" d="M115.167,96.291a.814.814,0,0,1-.712-.421.843.843,0,0,1,.306-1.137l7.592-4.408a.809.809,0,0,1,1.116.312.843.843,0,0,1-.306,1.137l-7.592,4.408A.8.8,0,0,1,115.167,96.291Zm0,0" transform="translate(-109.963 -86.69)"/><path class="a" d="M122.78,272.295a.8.8,0,0,1-.4-.109l-7.592-4.408a.843.843,0,0,1-.306-1.137.809.809,0,0,1,1.116-.312l7.592,4.408a.843.843,0,0,1,.306,1.137A.816.816,0,0,1,122.78,272.295Zm0,0" transform="translate(-109.985 -255.819)"/></g></svg>