<svg id="youtube" xmlns="http://www.w3.org/2000/svg" width="28.126" height="28.126" viewBox="0 0 28.126 28.126">
  <path id="Path_677" data-name="Path 677" d="M224.113,215.985l6.9-3.973-6.9-3.973Zm0,0" transform="translate(-212.972 -197.781)" fill="#72839c"/>
  <path id="Path_678" data-name="Path 678" d="M14.063,0A14.063,14.063,0,1,0,28.126,14.063,14.065,14.065,0,0,0,14.063,0ZM22.85,14.077a23.211,23.211,0,0,1-.362,4.227,2.2,2.2,0,0,1-1.549,1.549,53.45,53.45,0,0,1-6.876.362,51.538,51.538,0,0,1-6.876-.376A2.2,2.2,0,0,1,5.638,18.29a23.109,23.109,0,0,1-.362-4.227,23.2,23.2,0,0,1,.362-4.227A2.247,2.247,0,0,1,7.187,8.273a53.451,53.451,0,0,1,6.876-.362,51.429,51.429,0,0,1,6.876.376,2.2,2.2,0,0,1,1.549,1.549A22.026,22.026,0,0,1,22.85,14.077Zm0,0" fill="#72839c"/>
</svg>
