<?xml version="1.0" encoding="utf-8"?>
<!-- Generator: Adobe Illustrator 24.3.0, SVG Export Plug-In . SVG Version: 6.00 Build 0)  -->
<svg version="1.1" id="Layer_1" xmlns="http://www.w3.org/2000/svg" xmlns:xlink="http://www.w3.org/1999/xlink" x="0px" y="0px"
	 viewBox="0 0 512 512" style="enable-background:new 0 0 512 512;" xml:space="preserve">
<style type="text/css">
	.st0{fill:#F9EAB0;}
	.st1{fill:#F3D55B;}
	.st2{fill:#3F5C6C;}
	.st3{fill:#C03A2B;}
	.st4{fill:#ECF0F1;}
</style>
<g>
	<path class="st0" d="M72.3,40.4v430.3H375c1,0,2.2-0.1,3.2-0.2c16.3-1.6,28.8-15.3,28.8-31.7V80.2h31.9V8.5H104.1
		C86.5,8.5,72.3,22.8,72.3,40.4z"/>
	<path class="st1" d="M406.9,80.2h55.8c4.4,0,8-3.6,8-8V41.8c0.3-16.8-12.1-31-28.7-33.1c-1-0.1-2.1-0.2-3.1-0.2
		c-17.6,0-31.9,14.3-31.9,31.9V80.2z"/>
	<path class="st1" d="M375.1,470.7c-17.6,0-31.9-14.3-31.9-31.9V399H8.5v39.8c0,17.6,14.3,31.9,31.9,31.9H375.1"/>
</g>
<path class="st2" d="M352.1,90.2H119.3c-7.9,0-14.3-6.4-14.3-14.3v0c0-7.9,6.4-14.3,14.3-14.3h232.9c7.9,0,14.3,6.4,14.3,14.3v0
	C366.4,83.8,360,90.2,352.1,90.2z"/>
<path class="st2" d="M352.1,170H119.3c-7.9,0-14.3-6.4-14.3-14.3v0c0-7.9,6.4-14.3,14.3-14.3h232.9c7.9,0,14.3,6.4,14.3,14.3v0
	C366.4,163.6,360,170,352.1,170z"/>
<path class="st2" d="M352.1,249.9H119.3c-7.9,0-14.3-6.4-14.3-14.3v0c0-7.9,6.4-14.3,14.3-14.3l232.9,0c7.9,0,14.3,6.4,14.3,14.3v0
	C366.4,243.5,360,249.9,352.1,249.9z"/>
<path class="st2" d="M352.1,329.7H119.3c-7.9,0-14.3-6.4-14.3-14.3v0c0-7.9,6.4-14.3,14.3-14.3h232.9c7.9,0,14.3,6.4,14.3,14.3v0
	C366.4,323.3,360,329.7,352.1,329.7z"/>
<g>
	<circle class="st3" cx="385.5" cy="383.7" r="128"/>
	<circle class="st4" cx="385.5" cy="383.7" r="93.9"/>
	<path class="st2" d="M419.6,426.3c-2.3,0-4.4-0.9-6-2.5l-34.1-34.1c-1.6-1.6-2.5-3.8-2.5-6v-59.7c0-4.7,3.8-8.5,8.5-8.5
		c4.7,0,8.5,3.8,8.5,8.5v56.2l31.6,31.6c3.3,3.3,3.3,8.7,0,12.1C424,425.4,421.9,426.3,419.6,426.3L419.6,426.3z"/>
</g>
</svg>
