<svg xmlns="http://www.w3.org/2000/svg" width="15.998" height="16" viewBox="0 0 15.998 16">
  <path id="Icon_awesome-check-double" data-name="Icon awesome-check-double" d="M15.777,5.461,14.54,4.223a.747.747,0,0,0-1.059,0L6,11.707,2.516,8.223a.747.747,0,0,0-1.059,0L.217,9.463a.751.751,0,0,0,0,1.062l5.249,5.252a.747.747,0,0,0,1.059,0l9.249-9.255A.753.753,0,0,0,15.777,5.461ZM5.644,8.773a.5.5,0,0,0,.706,0l6.5-6.505a.5.5,0,0,0,0-.706L11.437.146a.5.5,0,0,0-.706,0L6,4.879,4.266,3.145a.5.5,0,0,0-.706,0L2.145,4.561a.5.5,0,0,0,0,.706Z" transform="translate(0.004 0.002)" fill="#f78077"/>
</svg>
