<svg xmlns="http://www.w3.org/2000/svg" width="265" height="200"><g data-name="Group 4914" transform="translate(-1012 -3251)" fill="#424242"><circle data-name="Ellipse 62" cx="2.5" cy="2.5" r="2.5" transform="translate(1012 3251)"/><circle data-name="Ellipse 62" cx="2.5" cy="2.5" r="2.5" transform="translate(1025 3251)"/><circle data-name="Ellipse 62" cx="2.5" cy="2.5" r="2.5" transform="translate(1038 3251)"/><circle data-name="Ellipse 62" cx="2.5" cy="2.5" r="2.5" transform="translate(1051 3251)"/><circle data-name="Ellipse 62" cx="2.5" cy="2.5" r="2.5" transform="translate(1064 3251)"/><circle data-name="Ellipse 62" cx="2.5" cy="2.5" r="2.5" transform="translate(1077 3251)"/><circle data-name="Ellipse 62" cx="2.5" cy="2.5" r="2.5" transform="translate(1090 3251)"/><circle data-name="Ellipse 62" cx="2.5" cy="2.5" r="2.5" transform="translate(1103 3251)"/><circle data-name="Ellipse 62" cx="2.5" cy="2.5" r="2.5" transform="translate(1116 3251)"/><circle data-name="Ellipse 62" cx="2.5" cy="2.5" r="2.5" transform="translate(1129 3251)"/><circle data-name="Ellipse 62" cx="2.5" cy="2.5" r="2.5" transform="translate(1142 3251)"/><circle data-name="Ellipse 62" cx="2.5" cy="2.5" r="2.5" transform="translate(1155 3251)"/><circle data-name="Ellipse 62" cx="2.5" cy="2.5" r="2.5" transform="translate(1168 3251)"/><circle data-name="Ellipse 62" cx="2.5" cy="2.5" r="2.5" transform="translate(1181 3251)"/><circle data-name="Ellipse 62" cx="2.5" cy="2.5" r="2.5" transform="translate(1194 3251)"/><circle data-name="Ellipse 62" cx="2.5" cy="2.5" r="2.5" transform="translate(1207 3251)"/><circle data-name="Ellipse 62" cx="2.5" cy="2.5" r="2.5" transform="translate(1220 3251)"/><circle data-name="Ellipse 62" cx="2.5" cy="2.5" r="2.5" transform="translate(1233 3251)"/><circle data-name="Ellipse 62" cx="2.5" cy="2.5" r="2.5" transform="translate(1246 3251)"/><circle data-name="Ellipse 62" cx="2.5" cy="2.5" r="2.5" transform="translate(1259 3251)"/><circle data-name="Ellipse 62" cx="2.5" cy="2.5" r="2.5" transform="translate(1272 3251)"/><circle data-name="Ellipse 62" cx="2.5" cy="2.5" r="2.5" transform="translate(1012 3266)"/><circle data-name="Ellipse 62" cx="2.5" cy="2.5" r="2.5" transform="translate(1025 3266)"/><circle data-name="Ellipse 62" cx="2.5" cy="2.5" r="2.5" transform="translate(1038 3266)"/><circle data-name="Ellipse 62" cx="2.5" cy="2.5" r="2.5" transform="translate(1051 3266)"/><circle data-name="Ellipse 62" cx="2.5" cy="2.5" r="2.5" transform="translate(1064 3266)"/><circle data-name="Ellipse 62" cx="2.5" cy="2.5" r="2.5" transform="translate(1077 3266)"/><circle data-name="Ellipse 62" cx="2.5" cy="2.5" r="2.5" transform="translate(1090 3266)"/><circle data-name="Ellipse 62" cx="2.5" cy="2.5" r="2.5" transform="translate(1103 3266)"/><circle data-name="Ellipse 62" cx="2.5" cy="2.5" r="2.5" transform="translate(1116 3266)"/><circle data-name="Ellipse 62" cx="2.5" cy="2.5" r="2.5" transform="translate(1129 3266)"/><circle data-name="Ellipse 62" cx="2.5" cy="2.5" r="2.5" transform="translate(1142 3266)"/><circle data-name="Ellipse 62" cx="2.5" cy="2.5" r="2.5" transform="translate(1155 3266)"/><circle data-name="Ellipse 62" cx="2.5" cy="2.5" r="2.5" transform="translate(1168 3266)"/><circle data-name="Ellipse 62" cx="2.5" cy="2.5" r="2.5" transform="translate(1181 3266)"/><circle data-name="Ellipse 62" cx="2.5" cy="2.5" r="2.5" transform="translate(1194 3266)"/><circle data-name="Ellipse 62" cx="2.5" cy="2.5" r="2.5" transform="translate(1207 3266)"/><circle data-name="Ellipse 62" cx="2.5" cy="2.5" r="2.5" transform="translate(1220 3266)"/><circle data-name="Ellipse 62" cx="2.5" cy="2.5" r="2.5" transform="translate(1233 3266)"/><circle data-name="Ellipse 62" cx="2.5" cy="2.5" r="2.5" transform="translate(1246 3266)"/><circle data-name="Ellipse 62" cx="2.5" cy="2.5" r="2.5" transform="translate(1259 3266)"/><circle data-name="Ellipse 62" cx="2.5" cy="2.5" r="2.5" transform="translate(1272 3266)"/><circle data-name="Ellipse 62" cx="2.5" cy="2.5" r="2.5" transform="translate(1012 3281)"/><circle data-name="Ellipse 62" cx="2.5" cy="2.5" r="2.5" transform="translate(1025 3281)"/><circle data-name="Ellipse 62" cx="2.5" cy="2.5" r="2.5" transform="translate(1038 3281)"/><circle data-name="Ellipse 62" cx="2.5" cy="2.5" r="2.5" transform="translate(1051 3281)"/><circle data-name="Ellipse 62" cx="2.5" cy="2.5" r="2.5" transform="translate(1064 3281)"/><circle data-name="Ellipse 62" cx="2.5" cy="2.5" r="2.5" transform="translate(1077 3281)"/><circle data-name="Ellipse 62" cx="2.5" cy="2.5" r="2.5" transform="translate(1090 3281)"/><circle data-name="Ellipse 62" cx="2.5" cy="2.5" r="2.5" transform="translate(1103 3281)"/><circle data-name="Ellipse 62" cx="2.5" cy="2.5" r="2.5" transform="translate(1116 3281)"/><circle data-name="Ellipse 62" cx="2.5" cy="2.5" r="2.5" transform="translate(1129 3281)"/><circle data-name="Ellipse 62" cx="2.5" cy="2.5" r="2.5" transform="translate(1142 3281)"/><circle data-name="Ellipse 62" cx="2.5" cy="2.5" r="2.5" transform="translate(1155 3281)"/><circle data-name="Ellipse 62" cx="2.5" cy="2.5" r="2.5" transform="translate(1168 3281)"/><circle data-name="Ellipse 62" cx="2.5" cy="2.5" r="2.5" transform="translate(1181 3281)"/><circle data-name="Ellipse 62" cx="2.5" cy="2.5" r="2.5" transform="translate(1194 3281)"/><circle data-name="Ellipse 62" cx="2.5" cy="2.5" r="2.5" transform="translate(1207 3281)"/><circle data-name="Ellipse 62" cx="2.5" cy="2.5" r="2.5" transform="translate(1220 3281)"/><circle data-name="Ellipse 62" cx="2.5" cy="2.5" r="2.5" transform="translate(1233 3281)"/><circle data-name="Ellipse 62" cx="2.5" cy="2.5" r="2.5" transform="translate(1246 3281)"/><circle data-name="Ellipse 62" cx="2.5" cy="2.5" r="2.5" transform="translate(1259 3281)"/><circle data-name="Ellipse 62" cx="2.5" cy="2.5" r="2.5" transform="translate(1272 3281)"/><circle data-name="Ellipse 62" cx="2.5" cy="2.5" r="2.5" transform="translate(1012 3296)"/><circle data-name="Ellipse 62" cx="2.5" cy="2.5" r="2.5" transform="translate(1025 3296)"/><circle data-name="Ellipse 62" cx="2.5" cy="2.5" r="2.5" transform="translate(1038 3296)"/><circle data-name="Ellipse 62" cx="2.5" cy="2.5" r="2.5" transform="translate(1051 3296)"/><circle data-name="Ellipse 62" cx="2.5" cy="2.5" r="2.5" transform="translate(1064 3296)"/><circle data-name="Ellipse 62" cx="2.5" cy="2.5" r="2.5" transform="translate(1077 3296)"/><circle data-name="Ellipse 62" cx="2.5" cy="2.5" r="2.5" transform="translate(1090 3296)"/><circle data-name="Ellipse 62" cx="2.5" cy="2.5" r="2.5" transform="translate(1103 3296)"/><circle data-name="Ellipse 62" cx="2.5" cy="2.5" r="2.5" transform="translate(1116 3296)"/><circle data-name="Ellipse 62" cx="2.5" cy="2.5" r="2.5" transform="translate(1129 3296)"/><circle data-name="Ellipse 62" cx="2.5" cy="2.5" r="2.5" transform="translate(1142 3296)"/><circle data-name="Ellipse 62" cx="2.5" cy="2.5" r="2.5" transform="translate(1155 3296)"/><circle data-name="Ellipse 62" cx="2.5" cy="2.5" r="2.5" transform="translate(1168 3296)"/><circle data-name="Ellipse 62" cx="2.5" cy="2.5" r="2.5" transform="translate(1181 3296)"/><circle data-name="Ellipse 62" cx="2.5" cy="2.5" r="2.5" transform="translate(1194 3296)"/><circle data-name="Ellipse 62" cx="2.5" cy="2.5" r="2.5" transform="translate(1207 3296)"/><circle data-name="Ellipse 62" cx="2.5" cy="2.5" r="2.5" transform="translate(1220 3296)"/><circle data-name="Ellipse 62" cx="2.5" cy="2.5" r="2.5" transform="translate(1233 3296)"/><circle data-name="Ellipse 62" cx="2.5" cy="2.5" r="2.5" transform="translate(1246 3296)"/><circle data-name="Ellipse 62" cx="2.5" cy="2.5" r="2.5" transform="translate(1259 3296)"/><circle data-name="Ellipse 62" cx="2.5" cy="2.5" r="2.5" transform="translate(1272 3296)"/><circle data-name="Ellipse 62" cx="2.5" cy="2.5" r="2.5" transform="translate(1012 3311)"/><circle data-name="Ellipse 62" cx="2.5" cy="2.5" r="2.5" transform="translate(1025 3311)"/><circle data-name="Ellipse 62" cx="2.5" cy="2.5" r="2.5" transform="translate(1038 3311)"/><circle data-name="Ellipse 62" cx="2.5" cy="2.5" r="2.5" transform="translate(1051 3311)"/><circle data-name="Ellipse 62" cx="2.5" cy="2.5" r="2.5" transform="translate(1064 3311)"/><circle data-name="Ellipse 62" cx="2.5" cy="2.5" r="2.5" transform="translate(1077 3311)"/><circle data-name="Ellipse 62" cx="2.5" cy="2.5" r="2.5" transform="translate(1090 3311)"/><circle data-name="Ellipse 62" cx="2.5" cy="2.5" r="2.5" transform="translate(1103 3311)"/><circle data-name="Ellipse 62" cx="2.5" cy="2.5" r="2.5" transform="translate(1116 3311)"/><circle data-name="Ellipse 62" cx="2.5" cy="2.5" r="2.5" transform="translate(1129 3311)"/><circle data-name="Ellipse 62" cx="2.5" cy="2.5" r="2.5" transform="translate(1142 3311)"/><circle data-name="Ellipse 62" cx="2.5" cy="2.5" r="2.5" transform="translate(1155 3311)"/><circle data-name="Ellipse 62" cx="2.5" cy="2.5" r="2.5" transform="translate(1168 3311)"/><circle data-name="Ellipse 62" cx="2.5" cy="2.5" r="2.5" transform="translate(1181 3311)"/><circle data-name="Ellipse 62" cx="2.5" cy="2.5" r="2.5" transform="translate(1194 3311)"/><circle data-name="Ellipse 62" cx="2.5" cy="2.5" r="2.5" transform="translate(1207 3311)"/><circle data-name="Ellipse 62" cx="2.5" cy="2.5" r="2.5" transform="translate(1220 3311)"/><circle data-name="Ellipse 62" cx="2.5" cy="2.5" r="2.5" transform="translate(1233 3311)"/><circle data-name="Ellipse 62" cx="2.5" cy="2.5" r="2.5" transform="translate(1246 3311)"/><circle data-name="Ellipse 62" cx="2.5" cy="2.5" r="2.5" transform="translate(1259 3311)"/><circle data-name="Ellipse 62" cx="2.5" cy="2.5" r="2.5" transform="translate(1272 3311)"/><circle data-name="Ellipse 62" cx="2.5" cy="2.5" r="2.5" transform="translate(1012 3326)"/><circle data-name="Ellipse 62" cx="2.5" cy="2.5" r="2.5" transform="translate(1025 3326)"/><circle data-name="Ellipse 62" cx="2.5" cy="2.5" r="2.5" transform="translate(1038 3326)"/><circle data-name="Ellipse 62" cx="2.5" cy="2.5" r="2.5" transform="translate(1051 3326)"/><circle data-name="Ellipse 62" cx="2.5" cy="2.5" r="2.5" transform="translate(1064 3326)"/><circle data-name="Ellipse 62" cx="2.5" cy="2.5" r="2.5" transform="translate(1077 3326)"/><circle data-name="Ellipse 62" cx="2.5" cy="2.5" r="2.5" transform="translate(1090 3326)"/><circle data-name="Ellipse 62" cx="2.5" cy="2.5" r="2.5" transform="translate(1103 3326)"/><circle data-name="Ellipse 62" cx="2.5" cy="2.5" r="2.5" transform="translate(1116 3326)"/><circle data-name="Ellipse 62" cx="2.5" cy="2.5" r="2.5" transform="translate(1129 3326)"/><circle data-name="Ellipse 62" cx="2.5" cy="2.5" r="2.5" transform="translate(1142 3326)"/><circle data-name="Ellipse 62" cx="2.5" cy="2.5" r="2.5" transform="translate(1155 3326)"/><circle data-name="Ellipse 62" cx="2.5" cy="2.5" r="2.5" transform="translate(1168 3326)"/><circle data-name="Ellipse 62" cx="2.5" cy="2.5" r="2.5" transform="translate(1181 3326)"/><circle data-name="Ellipse 62" cx="2.5" cy="2.5" r="2.5" transform="translate(1194 3326)"/><circle data-name="Ellipse 62" cx="2.5" cy="2.5" r="2.5" transform="translate(1207 3326)"/><circle data-name="Ellipse 62" cx="2.5" cy="2.5" r="2.5" transform="translate(1220 3326)"/><circle data-name="Ellipse 62" cx="2.5" cy="2.5" r="2.5" transform="translate(1233 3326)"/><circle data-name="Ellipse 62" cx="2.5" cy="2.5" r="2.5" transform="translate(1246 3326)"/><circle data-name="Ellipse 62" cx="2.5" cy="2.5" r="2.5" transform="translate(1259 3326)"/><circle data-name="Ellipse 62" cx="2.5" cy="2.5" r="2.5" transform="translate(1272 3326)"/><circle data-name="Ellipse 62" cx="2.5" cy="2.5" r="2.5" transform="translate(1012 3341)"/><circle data-name="Ellipse 62" cx="2.5" cy="2.5" r="2.5" transform="translate(1025 3341)"/><circle data-name="Ellipse 62" cx="2.5" cy="2.5" r="2.5" transform="translate(1038 3341)"/><circle data-name="Ellipse 62" cx="2.5" cy="2.5" r="2.5" transform="translate(1051 3341)"/><circle data-name="Ellipse 62" cx="2.5" cy="2.5" r="2.5" transform="translate(1064 3341)"/><circle data-name="Ellipse 62" cx="2.5" cy="2.5" r="2.5" transform="translate(1077 3341)"/><circle data-name="Ellipse 62" cx="2.5" cy="2.5" r="2.5" transform="translate(1090 3341)"/><circle data-name="Ellipse 62" cx="2.5" cy="2.5" r="2.5" transform="translate(1103 3341)"/><circle data-name="Ellipse 62" cx="2.5" cy="2.5" r="2.5" transform="translate(1116 3341)"/><circle data-name="Ellipse 62" cx="2.5" cy="2.5" r="2.5" transform="translate(1129 3341)"/><circle data-name="Ellipse 62" cx="2.5" cy="2.5" r="2.5" transform="translate(1142 3341)"/><circle data-name="Ellipse 62" cx="2.5" cy="2.5" r="2.5" transform="translate(1155 3341)"/><circle data-name="Ellipse 62" cx="2.5" cy="2.5" r="2.5" transform="translate(1168 3341)"/><circle data-name="Ellipse 62" cx="2.5" cy="2.5" r="2.5" transform="translate(1181 3341)"/><circle data-name="Ellipse 62" cx="2.5" cy="2.5" r="2.5" transform="translate(1194 3341)"/><circle data-name="Ellipse 62" cx="2.5" cy="2.5" r="2.5" transform="translate(1207 3341)"/><circle data-name="Ellipse 62" cx="2.5" cy="2.5" r="2.5" transform="translate(1220 3341)"/><circle data-name="Ellipse 62" cx="2.5" cy="2.5" r="2.5" transform="translate(1233 3341)"/><circle data-name="Ellipse 62" cx="2.5" cy="2.5" r="2.5" transform="translate(1246 3341)"/><circle data-name="Ellipse 62" cx="2.5" cy="2.5" r="2.5" transform="translate(1259 3341)"/><circle data-name="Ellipse 62" cx="2.5" cy="2.5" r="2.5" transform="translate(1272 3341)"/><circle data-name="Ellipse 62" cx="2.5" cy="2.5" r="2.5" transform="translate(1012 3356)"/><circle data-name="Ellipse 62" cx="2.5" cy="2.5" r="2.5" transform="translate(1025 3356)"/><circle data-name="Ellipse 62" cx="2.5" cy="2.5" r="2.5" transform="translate(1038 3356)"/><circle data-name="Ellipse 62" cx="2.5" cy="2.5" r="2.5" transform="translate(1051 3356)"/><circle data-name="Ellipse 62" cx="2.5" cy="2.5" r="2.5" transform="translate(1064 3356)"/><circle data-name="Ellipse 62" cx="2.5" cy="2.5" r="2.5" transform="translate(1077 3356)"/><circle data-name="Ellipse 62" cx="2.5" cy="2.5" r="2.5" transform="translate(1090 3356)"/><circle data-name="Ellipse 62" cx="2.5" cy="2.5" r="2.5" transform="translate(1103 3356)"/><circle data-name="Ellipse 62" cx="2.5" cy="2.5" r="2.5" transform="translate(1116 3356)"/><circle data-name="Ellipse 62" cx="2.5" cy="2.5" r="2.5" transform="translate(1129 3356)"/><circle data-name="Ellipse 62" cx="2.5" cy="2.5" r="2.5" transform="translate(1142 3356)"/><circle data-name="Ellipse 62" cx="2.5" cy="2.5" r="2.5" transform="translate(1155 3356)"/><circle data-name="Ellipse 62" cx="2.5" cy="2.5" r="2.5" transform="translate(1168 3356)"/><circle data-name="Ellipse 62" cx="2.5" cy="2.5" r="2.5" transform="translate(1181 3356)"/><circle data-name="Ellipse 62" cx="2.5" cy="2.5" r="2.5" transform="translate(1194 3356)"/><circle data-name="Ellipse 62" cx="2.5" cy="2.5" r="2.5" transform="translate(1207 3356)"/><circle data-name="Ellipse 62" cx="2.5" cy="2.5" r="2.5" transform="translate(1220 3356)"/><circle data-name="Ellipse 62" cx="2.5" cy="2.5" r="2.5" transform="translate(1233 3356)"/><circle data-name="Ellipse 62" cx="2.5" cy="2.5" r="2.5" transform="translate(1246 3356)"/><circle data-name="Ellipse 62" cx="2.5" cy="2.5" r="2.5" transform="translate(1259 3356)"/><circle data-name="Ellipse 62" cx="2.5" cy="2.5" r="2.5" transform="translate(1272 3356)"/><circle data-name="Ellipse 62" cx="2.5" cy="2.5" r="2.5" transform="translate(1012 3371)"/><circle data-name="Ellipse 62" cx="2.5" cy="2.5" r="2.5" transform="translate(1025 3371)"/><circle data-name="Ellipse 62" cx="2.5" cy="2.5" r="2.5" transform="translate(1038 3371)"/><circle data-name="Ellipse 62" cx="2.5" cy="2.5" r="2.5" transform="translate(1051 3371)"/><circle data-name="Ellipse 62" cx="2.5" cy="2.5" r="2.5" transform="translate(1064 3371)"/><circle data-name="Ellipse 62" cx="2.5" cy="2.5" r="2.5" transform="translate(1077 3371)"/><circle data-name="Ellipse 62" cx="2.5" cy="2.5" r="2.5" transform="translate(1090 3371)"/><circle data-name="Ellipse 62" cx="2.5" cy="2.5" r="2.5" transform="translate(1103 3371)"/><circle data-name="Ellipse 62" cx="2.5" cy="2.5" r="2.5" transform="translate(1116 3371)"/><circle data-name="Ellipse 62" cx="2.5" cy="2.5" r="2.5" transform="translate(1129 3371)"/><circle data-name="Ellipse 62" cx="2.5" cy="2.5" r="2.5" transform="translate(1142 3371)"/><circle data-name="Ellipse 62" cx="2.5" cy="2.5" r="2.5" transform="translate(1155 3371)"/><circle data-name="Ellipse 62" cx="2.5" cy="2.5" r="2.5" transform="translate(1168 3371)"/><circle data-name="Ellipse 62" cx="2.5" cy="2.5" r="2.5" transform="translate(1181 3371)"/><circle data-name="Ellipse 62" cx="2.5" cy="2.5" r="2.5" transform="translate(1194 3371)"/><circle data-name="Ellipse 62" cx="2.5" cy="2.5" r="2.5" transform="translate(1207 3371)"/><circle data-name="Ellipse 62" cx="2.5" cy="2.5" r="2.5" transform="translate(1220 3371)"/><circle data-name="Ellipse 62" cx="2.5" cy="2.5" r="2.5" transform="translate(1233 3371)"/><circle data-name="Ellipse 62" cx="2.5" cy="2.5" r="2.5" transform="translate(1246 3371)"/><circle data-name="Ellipse 62" cx="2.5" cy="2.5" r="2.5" transform="translate(1259 3371)"/><circle data-name="Ellipse 62" cx="2.5" cy="2.5" r="2.5" transform="translate(1272 3371)"/><circle data-name="Ellipse 62" cx="2.5" cy="2.5" r="2.5" transform="translate(1012 3386)"/><circle data-name="Ellipse 62" cx="2.5" cy="2.5" r="2.5" transform="translate(1025 3386)"/><circle data-name="Ellipse 62" cx="2.5" cy="2.5" r="2.5" transform="translate(1038 3386)"/><circle data-name="Ellipse 62" cx="2.5" cy="2.5" r="2.5" transform="translate(1051 3386)"/><circle data-name="Ellipse 62" cx="2.5" cy="2.5" r="2.5" transform="translate(1064 3386)"/><circle data-name="Ellipse 62" cx="2.5" cy="2.5" r="2.5" transform="translate(1077 3386)"/><circle data-name="Ellipse 62" cx="2.5" cy="2.5" r="2.5" transform="translate(1090 3386)"/><circle data-name="Ellipse 62" cx="2.5" cy="2.5" r="2.5" transform="translate(1103 3386)"/><circle data-name="Ellipse 62" cx="2.5" cy="2.5" r="2.5" transform="translate(1116 3386)"/><circle data-name="Ellipse 62" cx="2.5" cy="2.5" r="2.5" transform="translate(1129 3386)"/><circle data-name="Ellipse 62" cx="2.5" cy="2.5" r="2.5" transform="translate(1142 3386)"/><circle data-name="Ellipse 62" cx="2.5" cy="2.5" r="2.5" transform="translate(1155 3386)"/><circle data-name="Ellipse 62" cx="2.5" cy="2.5" r="2.5" transform="translate(1168 3386)"/><circle data-name="Ellipse 62" cx="2.5" cy="2.5" r="2.5" transform="translate(1181 3386)"/><circle data-name="Ellipse 62" cx="2.5" cy="2.5" r="2.5" transform="translate(1194 3386)"/><circle data-name="Ellipse 62" cx="2.5" cy="2.5" r="2.5" transform="translate(1207 3386)"/><circle data-name="Ellipse 62" cx="2.5" cy="2.5" r="2.5" transform="translate(1220 3386)"/><circle data-name="Ellipse 62" cx="2.5" cy="2.5" r="2.5" transform="translate(1233 3386)"/><circle data-name="Ellipse 62" cx="2.5" cy="2.5" r="2.5" transform="translate(1246 3386)"/><circle data-name="Ellipse 62" cx="2.5" cy="2.5" r="2.5" transform="translate(1259 3386)"/><circle data-name="Ellipse 62" cx="2.5" cy="2.5" r="2.5" transform="translate(1272 3386)"/><circle data-name="Ellipse 62" cx="2.5" cy="2.5" r="2.5" transform="translate(1012 3401)"/><circle data-name="Ellipse 62" cx="2.5" cy="2.5" r="2.5" transform="translate(1025 3401)"/><circle data-name="Ellipse 62" cx="2.5" cy="2.5" r="2.5" transform="translate(1038 3401)"/><circle data-name="Ellipse 62" cx="2.5" cy="2.5" r="2.5" transform="translate(1051 3401)"/><circle data-name="Ellipse 62" cx="2.5" cy="2.5" r="2.5" transform="translate(1064 3401)"/><circle data-name="Ellipse 62" cx="2.5" cy="2.5" r="2.5" transform="translate(1077 3401)"/><circle data-name="Ellipse 62" cx="2.5" cy="2.5" r="2.5" transform="translate(1090 3401)"/><circle data-name="Ellipse 62" cx="2.5" cy="2.5" r="2.5" transform="translate(1103 3401)"/><circle data-name="Ellipse 62" cx="2.5" cy="2.5" r="2.5" transform="translate(1116 3401)"/><circle data-name="Ellipse 62" cx="2.5" cy="2.5" r="2.5" transform="translate(1129 3401)"/><circle data-name="Ellipse 62" cx="2.5" cy="2.5" r="2.5" transform="translate(1142 3401)"/><circle data-name="Ellipse 62" cx="2.5" cy="2.5" r="2.5" transform="translate(1155 3401)"/><circle data-name="Ellipse 62" cx="2.5" cy="2.5" r="2.5" transform="translate(1168 3401)"/><circle data-name="Ellipse 62" cx="2.5" cy="2.5" r="2.5" transform="translate(1181 3401)"/><circle data-name="Ellipse 62" cx="2.5" cy="2.5" r="2.5" transform="translate(1194 3401)"/><circle data-name="Ellipse 62" cx="2.5" cy="2.5" r="2.5" transform="translate(1207 3401)"/><circle data-name="Ellipse 62" cx="2.5" cy="2.5" r="2.5" transform="translate(1220 3401)"/><circle data-name="Ellipse 62" cx="2.5" cy="2.5" r="2.5" transform="translate(1233 3401)"/><circle data-name="Ellipse 62" cx="2.5" cy="2.5" r="2.5" transform="translate(1246 3401)"/><circle data-name="Ellipse 62" cx="2.5" cy="2.5" r="2.5" transform="translate(1259 3401)"/><circle data-name="Ellipse 62" cx="2.5" cy="2.5" r="2.5" transform="translate(1272 3401)"/><circle data-name="Ellipse 62" cx="2.5" cy="2.5" r="2.5" transform="translate(1012 3416)"/><circle data-name="Ellipse 62" cx="2.5" cy="2.5" r="2.5" transform="translate(1025 3416)"/><circle data-name="Ellipse 62" cx="2.5" cy="2.5" r="2.5" transform="translate(1038 3416)"/><circle data-name="Ellipse 62" cx="2.5" cy="2.5" r="2.5" transform="translate(1051 3416)"/><circle data-name="Ellipse 62" cx="2.5" cy="2.5" r="2.5" transform="translate(1064 3416)"/><circle data-name="Ellipse 62" cx="2.5" cy="2.5" r="2.5" transform="translate(1077 3416)"/><circle data-name="Ellipse 62" cx="2.5" cy="2.5" r="2.5" transform="translate(1090 3416)"/><circle data-name="Ellipse 62" cx="2.5" cy="2.5" r="2.5" transform="translate(1103 3416)"/><circle data-name="Ellipse 62" cx="2.5" cy="2.5" r="2.5" transform="translate(1116 3416)"/><circle data-name="Ellipse 62" cx="2.5" cy="2.5" r="2.5" transform="translate(1129 3416)"/><circle data-name="Ellipse 62" cx="2.5" cy="2.5" r="2.5" transform="translate(1142 3416)"/><circle data-name="Ellipse 62" cx="2.5" cy="2.5" r="2.5" transform="translate(1155 3416)"/><circle data-name="Ellipse 62" cx="2.5" cy="2.5" r="2.5" transform="translate(1168 3416)"/><circle data-name="Ellipse 62" cx="2.5" cy="2.5" r="2.5" transform="translate(1181 3416)"/><circle data-name="Ellipse 62" cx="2.5" cy="2.5" r="2.5" transform="translate(1194 3416)"/><circle data-name="Ellipse 62" cx="2.5" cy="2.5" r="2.5" transform="translate(1207 3416)"/><circle data-name="Ellipse 62" cx="2.5" cy="2.5" r="2.5" transform="translate(1220 3416)"/><circle data-name="Ellipse 62" cx="2.5" cy="2.5" r="2.5" transform="translate(1233 3416)"/><circle data-name="Ellipse 62" cx="2.5" cy="2.5" r="2.5" transform="translate(1246 3416)"/><circle data-name="Ellipse 62" cx="2.5" cy="2.5" r="2.5" transform="translate(1259 3416)"/><circle data-name="Ellipse 62" cx="2.5" cy="2.5" r="2.5" transform="translate(1272 3416)"/><circle data-name="Ellipse 62" cx="2.5" cy="2.5" r="2.5" transform="translate(1012 3431)"/><circle data-name="Ellipse 62" cx="2.5" cy="2.5" r="2.5" transform="translate(1025 3431)"/><circle data-name="Ellipse 62" cx="2.5" cy="2.5" r="2.5" transform="translate(1038 3431)"/><circle data-name="Ellipse 62" cx="2.5" cy="2.5" r="2.5" transform="translate(1051 3431)"/><circle data-name="Ellipse 62" cx="2.5" cy="2.5" r="2.5" transform="translate(1064 3431)"/><circle data-name="Ellipse 62" cx="2.5" cy="2.5" r="2.5" transform="translate(1077 3431)"/><circle data-name="Ellipse 62" cx="2.5" cy="2.5" r="2.5" transform="translate(1090 3431)"/><circle data-name="Ellipse 62" cx="2.5" cy="2.5" r="2.5" transform="translate(1103 3431)"/><circle data-name="Ellipse 62" cx="2.5" cy="2.5" r="2.5" transform="translate(1116 3431)"/><circle data-name="Ellipse 62" cx="2.5" cy="2.5" r="2.5" transform="translate(1129 3431)"/><circle data-name="Ellipse 62" cx="2.5" cy="2.5" r="2.5" transform="translate(1142 3431)"/><circle data-name="Ellipse 62" cx="2.5" cy="2.5" r="2.5" transform="translate(1155 3431)"/><circle data-name="Ellipse 62" cx="2.5" cy="2.5" r="2.5" transform="translate(1168 3431)"/><circle data-name="Ellipse 62" cx="2.5" cy="2.5" r="2.5" transform="translate(1181 3431)"/><circle data-name="Ellipse 62" cx="2.5" cy="2.5" r="2.5" transform="translate(1194 3431)"/><circle data-name="Ellipse 62" cx="2.5" cy="2.5" r="2.5" transform="translate(1207 3431)"/><circle data-name="Ellipse 62" cx="2.5" cy="2.5" r="2.5" transform="translate(1220 3431)"/><circle data-name="Ellipse 62" cx="2.5" cy="2.5" r="2.5" transform="translate(1233 3431)"/><circle data-name="Ellipse 62" cx="2.5" cy="2.5" r="2.5" transform="translate(1246 3431)"/><circle data-name="Ellipse 62" cx="2.5" cy="2.5" r="2.5" transform="translate(1259 3431)"/><circle data-name="Ellipse 62" cx="2.5" cy="2.5" r="2.5" transform="translate(1272 3431)"/><circle data-name="Ellipse 62" cx="2.5" cy="2.5" r="2.5" transform="translate(1012 3446)"/><circle data-name="Ellipse 62" cx="2.5" cy="2.5" r="2.5" transform="translate(1025 3446)"/><circle data-name="Ellipse 62" cx="2.5" cy="2.5" r="2.5" transform="translate(1038 3446)"/><circle data-name="Ellipse 62" cx="2.5" cy="2.5" r="2.5" transform="translate(1051 3446)"/><circle data-name="Ellipse 62" cx="2.5" cy="2.5" r="2.5" transform="translate(1064 3446)"/><circle data-name="Ellipse 62" cx="2.5" cy="2.5" r="2.5" transform="translate(1077 3446)"/><circle data-name="Ellipse 62" cx="2.5" cy="2.5" r="2.5" transform="translate(1090 3446)"/><circle data-name="Ellipse 62" cx="2.5" cy="2.5" r="2.5" transform="translate(1103 3446)"/><circle data-name="Ellipse 62" cx="2.5" cy="2.5" r="2.5" transform="translate(1116 3446)"/><circle data-name="Ellipse 62" cx="2.5" cy="2.5" r="2.5" transform="translate(1129 3446)"/><circle data-name="Ellipse 62" cx="2.5" cy="2.5" r="2.5" transform="translate(1142 3446)"/><circle data-name="Ellipse 62" cx="2.5" cy="2.5" r="2.5" transform="translate(1155 3446)"/><circle data-name="Ellipse 62" cx="2.5" cy="2.5" r="2.5" transform="translate(1168 3446)"/><circle data-name="Ellipse 62" cx="2.5" cy="2.5" r="2.5" transform="translate(1181 3446)"/><circle data-name="Ellipse 62" cx="2.5" cy="2.5" r="2.5" transform="translate(1194 3446)"/><circle data-name="Ellipse 62" cx="2.5" cy="2.5" r="2.5" transform="translate(1207 3446)"/><circle data-name="Ellipse 62" cx="2.5" cy="2.5" r="2.5" transform="translate(1220 3446)"/><circle data-name="Ellipse 62" cx="2.5" cy="2.5" r="2.5" transform="translate(1233 3446)"/><circle data-name="Ellipse 62" cx="2.5" cy="2.5" r="2.5" transform="translate(1246 3446)"/><circle data-name="Ellipse 62" cx="2.5" cy="2.5" r="2.5" transform="translate(1259 3446)"/><circle data-name="Ellipse 62" cx="2.5" cy="2.5" r="2.5" transform="translate(1272 3446)"/></g></svg>