<svg xmlns="http://www.w3.org/2000/svg" width="27" height="23.665" viewBox="0 0 27 23.665">
  <g id="message" transform="translate(0 -31.622)">
    <path id="Path_21503" data-name="Path 21503" d="M18.67,31.622H3.053A3.057,3.057,0,0,0,0,34.675V48.36A.792.792,0,0,0,1.25,49L5.6,45.9a2.129,2.129,0,0,1,1.242-.4h9.565a3.057,3.057,0,0,0,3.053-3.053V32.413A.791.791,0,0,0,18.67,31.622ZM14.827,41.2H5.688a.791.791,0,1,1,0-1.582h9.139a.791.791,0,1,1,0,1.582Zm0-3.691H5.688a.791.791,0,1,1,0-1.582h9.139a.791.791,0,1,1,0,1.582Z" fill="#424242"/>
    <path id="Path_21504" data-name="Path 21504" d="M162.431,151.016V164.7a.792.792,0,0,1-1.25.644l-4.349-3.1a2.129,2.129,0,0,0-1.242-.4h-9.565a3.057,3.057,0,0,1-3.053-3.054v-1.5h8.868a4.64,4.64,0,0,0,4.635-4.635v-4.693h2.9A3.057,3.057,0,0,1,162.431,151.016Z" transform="translate(-135.431 -110.205)" fill="#424242"/>
  </g>
</svg>
