<svg xmlns="http://www.w3.org/2000/svg" width="27" height="26.998" viewBox="0 0 27 26.998">
  <g id="call" transform="translate(0.003)">
    <g id="_003---Call" data-name="003---Call" transform="translate(-0.003)">
      <path id="Shape" d="M12.176,15.849a10.9,10.9,0,0,1-3.29-6.186.925.925,0,0,1,.266-.774L11.238,6.8a.931.931,0,0,0,.131-1.152L8.049.5A.931.931,0,0,0,6.843.158l-5.33,2.51A.926.926,0,0,0,1,3.593c.279,2.653,1.436,9.175,7.845,15.584s12.93,7.566,15.584,7.845a.926.926,0,0,0,.925-.512l2.51-5.33a.931.931,0,0,0-.337-1.2l-5.155-3.319a.931.931,0,0,0-1.152.13l-2.084,2.085a.925.925,0,0,1-.774.266,10.9,10.9,0,0,1-6.186-3.29Z" transform="translate(-0.997 -0.029)" fill="#424242"/>
      <path id="Shape-2" data-name="Shape" d="M37.827,20.862a1.034,1.034,0,0,1-1.034-1.034,7.767,7.767,0,0,0-7.758-7.758,1.034,1.034,0,0,1,0-2.069,9.838,9.838,0,0,1,9.827,9.827A1.034,1.034,0,0,1,37.827,20.862Z" transform="translate(-16.223 -5.639)" fill="#424242"/>
      <path id="Shape-3" data-name="Shape" d="M43,16.034A1.034,1.034,0,0,1,41.965,15a12.945,12.945,0,0,0-12.93-12.93,1.034,1.034,0,0,1,0-2.069,15.016,15.016,0,0,1,15,15A1.034,1.034,0,0,1,43,16.034Z" transform="translate(-17.034)" fill="#424242"/>
    </g>
  </g>
</svg>
