<svg xmlns="http://www.w3.org/2000/svg" width="17" height="16.57" viewBox="0 0 17 16.57">
  <defs>
    <style>
      .cls-1 {
        fill: #00a5ec;
      }
    </style>
  </defs>
  <path id="forward_arrow" class="cls-1" d="M7.225,18.107l.842.842a.907.907,0,0,0,1.286,0l7.376-7.372a.907.907,0,0,0,0-1.286L9.353,2.915a.907.907,0,0,0-1.286,0l-.842.842a.912.912,0,0,0,.015,1.3l4.572,4.356H.907A.908.908,0,0,0,0,10.325v1.214a.908.908,0,0,0,.911.911h10.9L7.24,16.806A.905.905,0,0,0,7.225,18.107Z" transform="translate(0.004 -2.647)"/>
</svg>
