<?xml version="1.0" encoding="utf-8"?>
<!-- Generator: Adobe Illustrator 25.2.0, SVG Export Plug-In . SVG Version: 6.00 Build 0)  -->
<!DOCTYPE svg PUBLIC "-//W3C//DTD SVG 1.1//EN" "http://www.w3.org/Graphics/SVG/1.1/DTD/svg11.dtd" [
	<!ENTITY ns_extend "http://ns.adobe.com/Extensibility/1.0/">
	<!ENTITY ns_ai "http://ns.adobe.com/AdobeIllustrator/10.0/">
	<!ENTITY ns_graphs "http://ns.adobe.com/Graphs/1.0/">
	<!ENTITY ns_vars "http://ns.adobe.com/Variables/1.0/">
	<!ENTITY ns_imrep "http://ns.adobe.com/ImageReplacement/1.0/">
	<!ENTITY ns_sfw "http://ns.adobe.com/SaveForWeb/1.0/">
	<!ENTITY ns_custom "http://ns.adobe.com/GenericCustomNamespace/1.0/">
	<!ENTITY ns_adobe_xpath "http://ns.adobe.com/XPath/1.0/">
]>
<svg version="1.1" id="Layer_1" xmlns:x="&ns_extend;" xmlns:i="&ns_ai;" xmlns:graph="&ns_graphs;"
	 xmlns="http://www.w3.org/2000/svg" xmlns:xlink="http://www.w3.org/1999/xlink" x="0px" y="0px" width="26px" height="26px"
	 viewBox="0 0 26 26" style="enable-background:new 0 0 26 26;" xml:space="preserve">
<style type="text/css">
	.st0{fill:#D3D3D8;}
	.st1{fill:#F4A34C;}
</style>
<metadata>
	<sfw  xmlns="&ns_sfw;">
		<slices></slices>
		<sliceSourceBounds  bottomLeftOrigin="true" height="21.8" width="25" x="0" y="-2.1"></sliceSourceBounds>
	</sfw>
</metadata>
<g transform="translate(-31)">
	<g transform="translate(51)">
		<path class="st0" d="M4.7,26H1.3c-0.5,0-0.8-0.4-0.8-0.8c0,0,0,0,0,0V5.1c0-0.5,0.4-0.8,0.8-0.8h3.3c0.5,0,0.8,0.4,0.8,0.8
			c0,0,0,0,0,0v20.1C5.5,25.6,5.1,26,4.7,26C4.7,26,4.7,26,4.7,26z"/>
	</g>
	<g transform="translate(44.333 3.444)">
		<path class="st0" d="M4.7,4.2H1.3c-0.5,0-0.8,0.4-0.8,0.8v16.7c0,0.5,0.4,0.8,0.8,0.8h3.3c0.5,0,0.8-0.4,0.8-0.8V5.1
			C5.5,4.6,5.1,4.2,4.7,4.2z"/>
	</g>
	<path class="st0" d="M49.8,8.5v16.7c0,0.5-0.4,0.8-0.8,0.8h-1.7V7.7H49C49.5,7.7,49.8,8,49.8,8.5z"/>
	<g transform="translate(37.667 6.778)">
		<path class="st0" d="M4.7,19.2H1.3c-0.5,0-0.8-0.4-0.8-0.8V5.1c0-0.5,0.4-0.8,0.8-0.8h3.3c0.5,0,0.8,0.4,0.8,0.8v13.3
			C5.5,18.8,5.1,19.2,4.7,19.2C4.7,19.2,4.7,19.2,4.7,19.2z"/>
	</g>
	<g transform="translate(31 10.111)">
		<path class="st1" d="M4.7,15.9H1.3c-0.5,0-0.8-0.4-0.8-0.8v-10c0-0.5,0.4-0.8,0.8-0.8h3.3c0.5,0,0.8,0.4,0.8,0.8v10
			C5.5,15.5,5.1,15.9,4.7,15.9z"/>
	</g>
</g>
</svg>
